# xmcd
#
# Track frame offsets: 
#        150
#        12872
#        26691
#        39144
#        53484
#        66270
#        81170
#        93372
#        107383
#        120726
#        132593
#        146653
#        159802
#        173981
#        188523
#        201227
#        216772
#        228500
#        239419
#        252509
#        265965
#        280646
#        294874
#        308497
#        322194
#
# Disc length: 4454 seconds
#
# Revision: 0
# Processed by: cddbd v1.5.1PL2 Copyright (c) Steve Scherf et al.
# Submitted via: ExactAudioCopy v0.95b3
#
DISCID=59116419
DTITLE=Va  - Atlantic R&B series - Disc 1
DYEAR=1900
DGENRE=
TTITLE0=Joe Morris - Lowe Groovin'
TTITLE1=Tiny Grimes - Annie Laurie
TTITLE2=Tiny Grimes - Midnight Special
TTITLE3=Joe Morris - Applejack
TTITLE4=Frank Culley - Cole Slaw
TTITLE5=Stick McGhee and His Buddies - Drinkin' Wine Spo-Dee-O-De
TTITLE6=Stick McGhee - Drinkin' Wine, Spo-Dee-O-Dee
TTITLE7=Professor Longhair - Hey Little Girl
TTITLE8=Professor Longhair - Mardi Gras In New Orleans
TTITLE9=Harry Van Walls - Tee-Nah-Nah
TTITLE10=Joe Morris - Anytime, Anyplace, Anywhere
TTITLE11=Ruth Brown\\Spider Sam - Teardrops From My Eyes
TTITLE12=The Clovers - Don't You Know I Love You
TTITLE13=The Cardinals - Shouldn't I Know
TTITLE14=Big Joe Turner - Chill Is On
TTITLE15=Big Joe Turner - Chains of Love
TTITLE16=Various Artist - Fool Fool Fool - Clovers
TTITLE17=The Clovers - One Mint Julep
TTITLE18=The Cardinals - Wheel of Fortune 
TTITLE19=Big Joe Turner - Sweet Sixteen - Big Joe Turner
TTITLE20=Ruth Brown - 5-10-15 Hours
TTITLE21=The Clovers - Ting-A-Ling - The Clovers
TTITLE22=Ruth Brown - Daddy Daddy
TTITLE23=Ray Charles - Midnight Hour
TTITLE24=Willis "Gator" Jackson - Gator's Groove
EXTD=
EXTT0=
EXTT1=
EXTT2=
EXTT3=
EXTT4=
EXTT5=
EXTT6=
EXTT7=
EXTT8=
EXTT9=
EXTT10=
EXTT11=
EXTT12=
EXTT13=
EXTT14=
EXTT15=
EXTT16=
EXTT17=
EXTT18=
EXTT19=
EXTT20=
EXTT21=
EXTT22=
EXTT23=
EXTT24=
PLAYORDER=
